<svg version="1.1" id="Layer_1" xmlns="http://www.w3.org/2000/svg" xmlns:xlink="http://www.w3.org/1999/xlink" x="0px" y="0px"
	 width="100%" viewBox="0 0 1024 1024" enable-background="new 0 0 1024 1024" xml:space="preserve">

<defs>
  <mask id="cutoutMask">
    <rect width="1024" height="1024" fill="white"/>
    <path fill="black" d="M323.691742,468.999939 
	C323.691711,442.573608 323.691711,416.647308 323.691711,390.720978 
	C324.219666,390.412781 324.747620,390.104614 325.275574,389.796417 
	C345.794800,407.741272 366.313995,425.686127 387.703094,444.391724 
	C366.613464,462.424927 345.916168,480.122681 325.218872,497.820435 
	C324.709839,497.610046 324.200806,497.399628 323.691772,497.189240 
	C323.691772,487.959473 323.691772,478.729706 323.691742,468.999939 
z"/>
  </mask>
</defs>

<!-- Rune symbol with mask applied -->
<g mask="url(#cutoutMask)">
  <path fill="#FF4500" opacity="1.000000" stroke="none" 
	d="
M457.795349,411.727386 
	C416.308167,380.126678 374.771149,348.591064 333.362213,316.888153 
	C319.800568,306.505310 305.043365,302.137939 287.996979,305.274292 
	C270.558075,308.482910 257.293884,323.250122 257.287384,340.856140 
	C257.242401,462.684235 257.306793,584.512329 257.222656,706.340332 
	C257.219208,711.361877 258.982117,713.070984 263.921844,713.030823 
	C281.918610,712.884277 299.918854,712.942505 317.915436,713.138672 
	C322.883636,713.192749 324.039642,710.994019 324.016327,706.423340 
	C323.809662,665.927612 323.780457,625.430847 323.749268,584.934448 
	C323.748108,583.406128 323.154602,581.528564 325.063721,580.501709 
	C326.948334,580.725281 327.925690,582.213257 329.093201,583.333435 
	C344.602570,598.214722 360.081665,613.127563 375.561890,628.039246 
	C404.121704,655.550049 432.683655,683.058716 461.221100,710.592712 
	C463.234772,712.535522 465.398132,713.669922 468.303162,713.664429 
	C494.635101,713.614319 520.967163,713.648438 547.299194,713.643860 
	C549.292114,713.643555 551.680725,713.896362 552.679749,711.848755 
	C553.801270,709.549866 551.521790,708.255981 550.169434,706.936829 
	C529.299133,686.579407 508.384583,666.267456 487.488068,645.936951 
	C451.420013,610.845825 415.379120,575.726746 379.250092,540.698547 
	C376.443146,537.977112 376.686615,536.175293 379.618164,533.963379 
	C398.768036,519.514648 417.899689,505.041443 436.972778,490.491669 
	C439.776947,488.352539 441.967407,488.202789 444.930450,490.436462 
	C465.286926,505.782166 485.708557,521.043396 506.231079,536.166382 
	C522.726318,548.321716 538.508850,561.569946 556.098145,572.089966 
	C591.433899,593.223816 629.792847,598.567932 669.618408,589.525391 
	C715.990051,578.996521 750.132996,551.594543 772.326111,509.669647 
	C781.359802,492.604095 785.930847,474.034088 787.821594,454.784760 
	C790.679260,425.692230 788.471436,397.294250 776.721985,370.162231 
	C763.198120,338.932861 742.132507,314.531464 711.121765,299.687653 
	C686.992615,288.137848 661.448669,284.866577 634.796265,286.977722 
	C606.518860,289.217499 581.333069,298.807800 558.884155,315.794159 
	C532.185181,335.996338 505.684998,356.460999 479.078674,376.785706 
	C472.808960,381.575165 472.656525,383.072693 478.874084,387.864044 
	C493.918060,399.457123 509.100494,410.871033 524.106934,422.512115 
	C527.335388,425.016571 529.857178,424.942291 532.931335,422.384766 
	C550.218689,408.002899 567.837097,394.008667 584.870300,379.334045 
	C605.424316,361.626221 627.635132,349.473236 656.047607,353.707031 
	C672.270996,356.124481 686.337219,362.608612 697.667175,374.506622 
	C714.961670,392.668304 720.481201,415.202820 719.987610,439.332703 
	C719.633789,456.629395 715.502319,473.326050 706.373779,488.345581 
	C691.042358,513.570923 668.681274,527.354248 639.029480,528.202271 
	C617.737549,528.811157 599.693359,520.022339 582.953247,507.595154 
	C540.941833,476.407562 499.711334,444.206543 457.795349,411.727386 
z"/>
</g>

</svg>
