<svg width="20" height="20" viewBox="0 0 20 20" fill="none" xmlns="http://www.w3.org/2000/svg">
<path d="M10.6917 1.81631C10.4745 1.71727 10.2387 1.66602 10 1.66602C9.76135 1.66602 9.52548 1.71727 9.30834 1.81631L2.16668 5.06631C2.0188 5.13152 1.89308 5.23831 1.80481 5.37369C1.71655 5.50907 1.66956 5.6672 1.66956 5.82881C1.66956 5.99043 1.71655 6.14855 1.80481 6.28393C1.89308 6.41931 2.0188 6.52611 2.16668 6.59131L9.31668 9.84965C9.53381 9.94869 9.76969 9.99994 10.0083 9.99994C10.247 9.99994 10.4829 9.94869 10.7 9.84965L17.85 6.59965C17.9979 6.53444 18.1236 6.42765 18.2119 6.29227C18.3001 6.15688 18.3471 5.99876 18.3471 5.83715C18.3471 5.67553 18.3001 5.51741 18.2119 5.38203C18.1236 5.24665 17.9979 5.13985 17.85 5.07465L10.6917 1.81631Z" stroke="#38BDF8" stroke-width="1.25" stroke-linecap="round" stroke-linejoin="round"/>
<path d="M1.66669 10C1.6663 10.1594 1.71162 10.3155 1.79729 10.45C1.88296 10.5844 2.00537 10.6914 2.15002 10.7583L9.31669 14.0167C9.53269 14.1145 9.76708 14.1651 10.0042 14.1651C10.2413 14.1651 10.4757 14.1145 10.6917 14.0167L17.8417 10.7667C17.9892 10.7004 18.1142 10.5926 18.2015 10.4564C18.2888 10.3203 18.3346 10.1617 18.3334 10" stroke="#38BDF8" stroke-width="1.25" stroke-linecap="round" stroke-linejoin="round"/>
<path d="M1.66669 14.167C1.6663 14.3264 1.71162 14.4825 1.79729 14.6169C1.88296 14.7514 2.00537 14.8584 2.15002 14.9253L9.31669 18.1837C9.53269 18.2815 9.76708 18.3321 10.0042 18.3321C10.2413 18.3321 10.4757 18.2815 10.6917 18.1837L17.8417 14.9337C17.9892 14.8674 18.1142 14.7596 18.2015 14.6234C18.2888 14.4873 18.3346 14.3287 18.3334 14.167" stroke="#38BDF8" stroke-width="1.25" stroke-linecap="round" stroke-linejoin="round"/>
</svg>
